<svg width="143" height="25" fill="none" xmlns="http://www.w3.org/2000/svg"><path fill-rule="evenodd" clip-rule="evenodd" d="M58 4V0h-5v4h5zM42 20l4-1 1 1h3V1h-5v5l-3-1c-4 0-8 4-8 8s4 7 8 7zM7 20l5-1v1h4V6h-4v1L7 5c-4 0-7 4-7 8s3 7 7 7zm1-4c-2 0-3-1-3-3s1-3 3-3 3 1 3 3-1 3-3 3zm24-2c0 4-2 6-6 6-5 0-7-2-7-6V6h4v8c0 1 1 2 3 2l2-2V6h4v8zm7-1c0 2 2 3 4 3 1 0 3-1 3-3s-2-3-3-3c-2 0-4 1-4 3zm19-7v14h-5V6h5zm10 14c5 0 8-3 8-7s-3-8-8-8c-4 0-8 4-8 8s4 7 8 7zm-3-7c0 2 1 3 3 3s3-1 3-3-1-3-3-3-3 1-3 3zm18 12v-6l3 1c5 0 8-3 8-7s-3-8-8-8l-4 2V6h-4v19h5zm0-12c0 2 1 3 3 3s3-1 3-3-1-3-3-3-3 1-3 3zm18 7v-8l2-2c1 0 2 0 2 2v8h5v-9c0-3-2-6-5-6l-4 2V1h-5v19h5zm17-20v4h-5V0h5zm0 6h-5v14h5V6zm7-5v19h-4V1h4zm10 19c4 0 7-2 8-5h-5l-3 1c-1 0-2 0-3-2h11v-1c0-4-3-8-8-8-4 0-7 4-7 8s3 7 7 7zm-2-9h5c0-1-1-2-3-2l-2 2z" fill="#fff"/></svg>